<svg width="149" height="116" viewBox="0 0 149 116" fill="none" xmlns="http://www.w3.org/2000/svg">
<path d="M56.7668 55.1235L56.3654 58.2007H57.3019C57.3019 58.2007 56.9934 57.0666 57.3019 56.4614C57.5542 55.9666 57.8536 55.7235 58.3723 55.5249C58.909 55.3192 59.2723 55.5836 59.844 55.5249C60.5375 55.4536 60.8922 55.2141 61.5834 55.1235C62.5159 55.0012 63.0649 55.2839 63.9917 55.1235C64.8057 54.9826 65.2684 54.841 65.9986 54.4545C66.6267 54.122 66.9584 53.8771 67.4703 53.3841C67.9523 52.92 68.4051 52.7014 68.5407 52.0462C68.6847 51.3503 68.5152 50.8021 68.0055 50.3069C67.6018 49.9148 67.2131 49.9098 66.6675 49.7717C65.6545 49.5152 65.0299 49.653 63.9917 49.7717L63.9703 49.7741C63.0261 49.882 62.4688 49.9457 61.5834 50.3069C60.1024 50.9109 58.3723 52.849 58.3723 52.849L60.2454 48.3C60.2454 48.3 61.4583 47.7837 62.2523 47.4972C63.4339 47.0708 64.1295 46.9317 65.3296 46.5606C66.1664 46.3019 66.7006 46.3096 67.4703 45.8917C68.4774 45.3449 69.3723 45.0055 69.611 43.8847C69.6981 43.4759 69.7017 43.2224 69.611 42.8144C69.5096 42.3582 69.3836 42.0957 69.0758 41.744C68.6142 41.2165 68.1542 41.0951 67.4703 40.9413C66.4394 40.7093 65.7944 41.0012 64.7944 41.3427C63.7088 41.7133 63.1054 42.0475 62.2523 42.8144C61.1854 43.7736 60.2454 45.8917 60.2454 45.8917L60.7806 42.2792C60.7806 42.2792 61.4244 40.8495 61.5834 39.8709C61.7425 38.891 61.5834 38.3216 61.5834 37.3288C61.5834 36.6496 61.737 36.2512 61.5834 35.5895C61.4248 34.9066 61.4076 34.2975 60.7806 33.984C60.3132 33.7503 59.9554 33.8834 59.4426 33.984C59.0046 34.0699 58.7436 34.1376 58.3723 34.3853C57.7455 34.8036 57.5316 35.2732 57.3019 35.9909C57.0471 36.7871 57.1533 37.3089 57.3019 38.1316C57.5935 39.7453 59.4426 41.744 59.4426 41.744V44.5537L58.9075 48.3L57.8371 52.849C57.8371 52.849 57.9657 51.2913 57.8371 50.3069C57.6595 48.9469 57.4213 48.1672 56.7668 46.962C56.3377 46.1721 56.1654 45.6042 55.4288 45.0889C55.0071 44.7939 54.7342 44.6255 54.2247 44.5537C53.4713 44.4476 52.9598 44.632 52.3515 45.0889C51.6779 45.5949 52.0602 46.6412 51.2812 46.962C50.798 47.161 50.4525 46.8452 49.9432 46.962C49.067 47.163 48.652 47.6148 48.0701 48.3C47.0852 49.4597 47.1605 50.5332 46.9998 52.0462C46.8168 53.7679 47.4011 56.4614 47.4011 56.4614C47.4011 56.4614 44.402 54.7479 43.9225 52.849C43.4287 50.8935 45.0279 49.8819 45.3942 47.8986C45.6804 46.3495 46.0993 45.4305 45.7956 43.8847C45.6235 43.0086 45.7599 42.201 44.9928 41.744C44.3644 41.3697 43.838 41.6058 43.1197 41.744C42.5192 41.8596 42.1523 41.9332 41.648 42.2792C41.0017 42.7226 40.7723 43.1731 40.4438 43.8847C39.787 45.308 40.0824 46.3733 40.4438 47.8986C40.778 49.3085 42.0494 51.2434 42.0494 51.2434C42.0494 51.2434 39.9931 49.9828 38.8383 48.9689C37.6154 47.8953 37.4463 46.6906 36.0286 45.8917C35.1649 45.4049 34.604 45.2119 33.6203 45.0889C32.9982 45.0111 32.5536 44.7683 32.0148 45.0889C31.6641 45.2976 31.5136 45.5197 31.3458 45.8917C30.9444 46.7814 31.4489 47.5046 32.0148 48.3C32.6282 49.162 33.3202 49.3471 34.2893 49.7717C36.118 50.5729 37.5379 49.5216 39.3735 50.3069C41.1142 51.0515 43.1197 53.3841 43.1197 53.3841L46.4646 56.4614C46.4646 56.4614 45.0189 55.3612 43.9225 55.1235C43.0544 54.9352 42.5362 55.1235 41.648 55.1235C40.7597 55.1235 40.2039 54.8083 39.3735 55.1235C38.6104 55.413 38.1384 55.7342 37.7679 56.4614C37.341 57.2994 37.4073 58.0011 37.7679 58.8697C38.2092 59.9324 38.9858 60.2872 40.0424 60.7428C41.0128 61.1613 41.6642 61.2182 42.7183 61.1442C43.9876 61.0551 44.6337 60.5924 45.7956 60.0739C46.7134 59.6643 48.0701 58.8697 48.0701 58.8697L49.0067 59.5387L50.4784 61.6794L51.2812 61.1442L49.4081 58.8697C49.4081 58.8697 50.08 57.4104 50.4784 56.4614C50.8052 55.6831 50.9857 55.2452 51.2812 54.4545C51.7439 53.2163 52.3515 51.2434 52.3515 51.2434C52.3515 51.2434 52.8354 51.7382 53.1543 52.0462C53.713 52.5859 54.0393 52.8752 54.626 53.3841C55.4397 54.09 56.7668 55.1235 56.7668 55.1235Z" fill="url(#paint0_linear_365_12143)"/>
<path d="M14.4884 103.959C15.4249 101.417 14.4884 80.1433 14.4884 80.1433L22.3822 71.5804C22.3822 71.5804 23.185 103.156 24.2554 105.163C25.3257 107.17 24.7976 106.304 25.3257 106.902C25.9947 107.659 27.0651 108.374 28.0016 108.641C28.9382 108.909 39.5079 108.641 39.5079 108.641V114.528H0.0385742L0.0385742 108.641C0.0385742 108.641 8.20004 108.775 10.0732 108.641C11.9463 108.508 12.0133 108.063 12.8828 107.17C13.8144 106.213 13.5518 106.501 14.4884 103.959Z" fill="url(#paint1_linear_365_12143)"/>
<path d="M68.2737 116L43.9232 64.2217L57.1688 57.2644L73.6255 91.6496L117.109 1.0708L147.079 1.0708V6.28878H137.713C137.044 6.28878 135.037 6.45958 133.833 7.49293C132.751 8.42181 132.227 9.90123 132.094 10.704C131.96 11.5068 132.094 101.684 132.094 102.219C132.094 102.755 132.506 105.472 133.833 106.902C134.681 107.816 135.84 108.641 136.509 108.641H148.55V114.528L102.124 114.528V108.641C102.124 108.641 111.623 108.909 112.693 108.641C113.756 108.376 114.272 107.862 115.083 107.055L115.102 107.036C116.088 106.054 116.172 105.698 117.109 103.959C118.045 102.219 117.109 18.0627 117.109 18.0627L71.8862 116H68.2737Z" fill="url(#paint2_linear_365_12143)"/>
<path d="M24.7905 78.9387C23.3644 76.3288 22.3822 71.7138 22.3822 71.7138V70.3758C22.3822 70.3758 23.1934 70.7923 23.7201 71.0448C25.304 71.8041 26.2669 72.0616 27.8678 72.7841C29.4014 73.4763 30.3106 73.7823 31.7478 74.6573C32.9619 75.3963 33.6004 75.8869 34.6913 76.798C35.6842 77.6272 36.232 78.1129 37.0996 79.0725C38.0248 80.0957 38.5015 80.7173 39.2403 81.8822C39.9663 83.0268 40.4522 83.6624 40.8458 84.9594C41.1828 86.0696 41.2926 86.7437 41.2472 87.9029C41.2119 88.8042 40.8458 90.1774 40.8458 90.1774C40.8458 90.1774 38.7716 89.8107 37.501 89.3746C35.9095 88.8285 35.0839 88.3327 33.6209 87.5015C32.6 86.9215 32.0356 86.5766 31.0788 85.896C29.7487 84.9498 28.9974 84.3984 27.8678 83.2201C26.4428 81.7338 25.7778 80.7456 24.7905 78.9387Z" fill="url(#paint3_linear_365_12143)"/>
<path d="M19.4387 71.7138C20.2355 71.4954 21.4456 71.0448 21.4456 71.0448C21.4456 71.0448 20.5293 70.6761 19.9739 70.3758C19.0175 69.8588 18.6046 69.3726 17.6994 68.7703C16.625 68.0555 16.0875 67.5113 14.8897 67.031C13.7956 66.5923 13.116 66.5076 11.9462 66.362C10.4944 66.1813 9.65519 66.2111 8.2 66.362C6.87498 66.4994 6.08478 66.5186 4.85514 67.031C4.07744 67.355 2.98202 68.1013 2.98202 68.1013C2.98202 68.1013 3.79392 68.8392 4.31996 69.3055C5.09608 69.9934 5.41751 70.5461 6.32688 71.0448C7.00793 71.4183 7.46035 71.4766 8.2 71.7138C8.92443 71.9461 9.32089 72.1353 10.0731 72.249C10.9514 72.3817 11.4594 72.249 12.3476 72.249H14.8897C15.6212 72.249 16.0337 72.3076 16.7628 72.249C17.7883 72.1665 18.3697 72.007 19.3334 71.7427L19.4387 71.7138Z" fill="url(#paint4_linear_365_12143)"/>
<path d="M19.9739 74.6573C20.6271 73.5505 21.4456 71.7138 21.4456 71.7138C21.4456 71.7138 20.2181 72.0242 19.4387 72.249C18.7559 72.4459 18.3968 72.6474 17.6994 72.7841C16.4176 73.0355 15.6509 72.6237 14.3545 72.7841C13.0717 72.9429 12.3332 73.0817 11.1435 73.5869C9.88936 74.1195 9.32989 74.6986 8.2 75.46C6.8652 76.3595 5.94138 76.6805 4.85514 77.8683C3.93565 78.8738 3.69424 79.6503 2.98202 80.8118C2.28407 81.95 1.82582 82.5542 1.24269 83.7553C0.679079 84.9162 0.203281 85.5526 0.038539 86.8326C-0.0481738 87.5062 0.038539 88.5719 0.038539 88.5719C0.038539 88.5719 2.3385 88.7924 3.78478 88.5719C4.7996 88.4171 5.35118 88.222 6.32688 87.9029C7.39662 87.553 8.04371 87.4216 9.00276 86.8326C9.94933 86.2512 10.2671 85.6421 11.1435 84.9594C12.0924 84.2202 12.7947 84.0284 13.6856 83.2201C14.5923 82.3975 14.9519 81.7867 15.6925 80.8118C16.5341 79.704 16.9059 79.0111 17.6994 77.8683C18.5758 76.606 19.1929 75.9807 19.9739 74.6573Z" fill="url(#paint5_linear_365_12143)"/>
<path d="M18.9035 60.7426C20.0646 64.1602 22.3822 69.3055 22.3822 69.3055C22.3822 69.3055 19.5069 66.719 17.6994 65.0241C16.5941 63.9876 16.0041 63.3749 14.8897 62.3482C13.91 61.4456 13.201 61.0965 12.3476 60.0737C11.5209 59.0828 11.2571 58.3795 10.6083 57.264C9.83254 55.9303 9.31516 55.2151 8.73517 53.7853C8.16323 52.3754 8.01823 51.519 7.66482 50.0391C7.26969 48.3845 7.12969 47.4376 6.86205 45.7577C6.61326 44.196 6.57099 43.3063 6.32688 41.7438C6.05634 40.0123 6.07185 38.9934 5.52411 37.3286C4.85936 35.3083 2.98202 32.512 2.98202 32.512C2.98202 32.512 4.61536 33.374 5.52411 34.1176C7.07772 35.3887 7.55624 36.5067 8.73517 38.1314C9.73094 39.5037 10.2539 40.3005 11.1435 41.7438C12.2725 43.5756 12.85 44.6394 13.8194 46.5604C15.1051 49.1086 15.7879 50.5676 16.7628 53.2502C17.8023 56.1102 17.9246 57.8613 18.9035 60.7426Z" fill="url(#paint6_linear_365_12143)"/>
<path d="M26.6636 38.1314L27.8678 41.7438L28.6705 45.2225C28.6705 45.2225 28.9382 47.2585 29.0719 48.5674C29.2902 50.7042 29.495 51.9051 29.4733 54.0529C29.4542 55.9404 29.5707 57.0491 29.0719 58.8695C28.7437 60.0673 28.3216 60.6569 27.8678 61.813C27.3784 63.0596 27.2858 63.8381 26.6636 65.0241C26.1385 66.025 25.9022 66.6806 25.0581 67.4324C24.1856 68.2094 22.3822 68.7703 22.3822 68.7703L21.4456 65.8937C21.0799 64.7704 20.8458 64.1496 20.5091 63.0172C20.0323 61.4137 19.7468 60.5137 19.4387 58.8695C19.071 56.9072 19.206 55.7588 18.9035 53.7853C18.5558 51.5164 18.1226 50.2883 17.6994 48.0322C17.2893 45.8455 17.0825 44.6145 16.7628 42.4128C16.3847 39.8089 16.2649 38.3366 15.9601 35.7231C15.7468 33.8948 15.6925 31.9769 15.4249 31.0403C15.1573 30.1037 14.165 29.0386 13.0166 28.0968C12.3442 27.5454 11.7462 27.5196 11.1435 26.8927C10.5907 26.3177 10.4165 25.8732 10.0731 25.1533C9.62486 24.2137 9.40121 23.6441 9.27035 22.6112C9.17841 21.8856 9.27035 21.4696 9.27035 20.7381V19.8016H10.0731C10.4745 19.8016 11.0097 19.9354 11.1435 19.8016C11.2773 19.6678 10.8451 18.3637 11.1435 17.5271C11.4067 16.7889 12.08 16.1891 12.3476 15.9215C12.6152 15.6539 13.0166 15.1188 13.0166 15.1188C13.0166 15.1188 13.8709 16.2341 14.3545 16.9919C14.8078 17.7021 15.1573 18.865 15.4249 18.865C15.6925 18.865 17.6994 16.9919 17.6994 16.9919C17.6994 16.9919 18.5621 18.0652 18.9035 18.865C19.322 19.8451 19.4387 20.4752 19.4387 21.5409C19.4387 22.6066 19.0997 23.1693 18.9035 24.2168C18.7376 25.1034 18.7698 26.0899 18.5022 26.4913C18.2346 26.8927 17.6144 26.788 17.1642 27.1603C16.3177 27.8603 15.9601 29.7024 15.9601 29.7024V31.0403L16.7628 36.5259L17.298 41.3425L18.5022 48.5674L18.9035 50.5743L19.9739 45.2225L17.6994 40.5397L17.1642 35.7231L17.6994 31.4417L19.4387 28.0968L20.5091 32.512L21.4456 38.1314L21.0443 41.3425V42.948L24.7905 35.7231L30.1423 28.0968L32.5506 24.2168L30.1423 21.5409C30.1423 21.5409 28.4808 19.2213 27.8678 17.5271C26.6234 14.0878 27.1639 11.7506 27.8678 8.16146C28.5269 4.80041 31.0788 0 31.0788 0C31.0788 0 32.3049 0.915139 33.2195 1.20415C34.5647 1.62922 35.4592 0.879019 36.832 1.20415C38.1963 1.52727 38.9405 1.94372 40.0431 2.80968C40.8862 3.47186 41.9162 4.8166 41.9162 4.8166C41.9162 4.8166 44.0359 6.49321 45.6624 6.82351C46.7889 7.05228 47.5098 6.47726 48.6059 6.82351C49.7818 7.19497 51.148 8.69663 51.148 8.69663C51.148 8.69663 52.1055 10.0986 52.4859 11.1049C52.7907 11.911 52.4739 12.58 53.0211 13.2456C53.5405 13.8774 54.3125 13.6073 54.8942 14.1822C55.443 14.7245 55.8308 15.9215 55.8308 15.9215L53.6901 18.865C53.6901 18.865 52.2353 20.5946 51.148 21.5409C50.2178 22.3504 49.6634 22.7797 48.6059 23.414C47.1409 24.2928 46.2198 24.6349 44.5921 25.1533C43.5657 25.4802 42.9925 25.7797 41.9162 25.8223C40.6363 25.873 39.9786 25.291 38.7051 25.1533C37.3025 25.0017 36.5034 25.1533 35.0927 25.1533H33.2195L29.0719 31.0403L27.065 34.5189C27.065 34.5189 29.7726 33.5824 31.0788 33.5824H34.4237C35.7299 33.5824 37.1964 32.8618 38.7051 33.5824C39.2806 33.8573 40.0431 34.5189 40.0431 34.5189C40.0431 34.5189 37.8965 35.708 36.4306 36.2583C34.959 36.8107 34.1118 37.1459 32.5506 37.3286C31.357 37.4683 30.6691 37.4477 29.4733 37.3286C28.0353 37.1854 25.8609 36.5259 25.8609 36.5259L23.7201 40.0045L21.0443 45.2225L19.9739 50.0391V56.4612L20.5622 60.2319C20.5318 59.9445 20.5127 59.6657 20.5091 59.4047C20.4799 57.2831 21.0135 56.1302 21.4456 54.0529C21.7734 52.4771 21.904 51.576 22.3822 50.0391C22.8147 48.6493 23.206 47.9221 23.7201 46.5604C24.2516 45.153 24.5557 44.366 25.0581 42.948C25.7202 41.0791 26.6636 38.1314 26.6636 38.1314Z" fill="url(#paint7_linear_365_12143)"/>
<defs>
<linearGradient id="paint0_linear_365_12143" x1="50.4395" y1="33.854" x2="50.4395" y2="61.6794" gradientUnits="userSpaceOnUse">
<stop stop-color="#F5B510"/>
<stop offset="0.56" stop-color="#EFC048"/>
<stop offset="1" stop-color="#AC7C03"/>
</linearGradient>
<linearGradient id="paint1_linear_365_12143" x1="74.2945" y1="1.0708" x2="74.2945" y2="116" gradientUnits="userSpaceOnUse">
<stop stop-color="#F5B510"/>
<stop offset="0.56" stop-color="#EFC048"/>
<stop offset="1" stop-color="#AC7C03"/>
</linearGradient>
<linearGradient id="paint2_linear_365_12143" x1="74.2945" y1="1.0708" x2="74.2945" y2="116" gradientUnits="userSpaceOnUse">
<stop stop-color="#F5B510"/>
<stop offset="0.56" stop-color="#EFC048"/>
<stop offset="1" stop-color="#AC7C03"/>
</linearGradient>
<linearGradient id="paint3_linear_365_12143" x1="27.9154" y1="0" x2="27.9154" y2="90.1774" gradientUnits="userSpaceOnUse">
<stop stop-color="#F5B510"/>
<stop offset="0.56" stop-color="#EFC048"/>
<stop offset="1" stop-color="#AC7C03"/>
</linearGradient>
<linearGradient id="paint4_linear_365_12143" x1="27.9154" y1="0" x2="27.9154" y2="90.1774" gradientUnits="userSpaceOnUse">
<stop stop-color="#F5B510"/>
<stop offset="0.56" stop-color="#EFC048"/>
<stop offset="1" stop-color="#AC7C03"/>
</linearGradient>
<linearGradient id="paint5_linear_365_12143" x1="27.9154" y1="0" x2="27.9154" y2="90.1774" gradientUnits="userSpaceOnUse">
<stop stop-color="#F5B510"/>
<stop offset="0.56" stop-color="#EFC048"/>
<stop offset="1" stop-color="#AC7C03"/>
</linearGradient>
<linearGradient id="paint6_linear_365_12143" x1="27.9154" y1="0" x2="27.9154" y2="90.1774" gradientUnits="userSpaceOnUse">
<stop stop-color="#F5B510"/>
<stop offset="0.56" stop-color="#EFC048"/>
<stop offset="1" stop-color="#AC7C03"/>
</linearGradient>
<linearGradient id="paint7_linear_365_12143" x1="27.9154" y1="0" x2="27.9154" y2="90.1774" gradientUnits="userSpaceOnUse">
<stop stop-color="#F5B510"/>
<stop offset="0.56" stop-color="#EFC048"/>
<stop offset="1" stop-color="#AC7C03"/>
</linearGradient>
</defs>
</svg>
